#!OML:ASF F:\VICON\USERDATA\INSTALL\rory3\rory3.ASF
:FULLY-SPECIFIED
:DEGREES
4065
root -9.28831 18.2771 -1.03199 1080.07 -21.6315 1.32624
lowerback 12.28 6.56799 4.51453
upperback 2.34664 9.13379 -2.86479
thorax -3.16223 4.50513 -6.78952
lowerneck -16.7837 12.9566 -5.09195
upperneck 46.4138 21.8034 3.68018
head 19.8169 8.06591 6.9752
rclavicle 5.33488e-014 -2.32578e-014
rhumerus -33.0001 -8.71548 -77.7367
rradius 44.6707
rwrist -0.0671308
rhand -14.3786 8.18936
rfingers 7.12502
rthumb 11.7641 -21.4603
lclavicle 5.33488e-014 -2.32578e-014
lhumerus -42.5312 17.2334 73.759
lradius 32.4477
lwrist -8.08493
lhand -16.3826 26.6957
lfingers 7.12502
lthumb 9.83105 56.4462
rfemur -13.035 -7.46571 16.1445
rtibia 32.5264
rfoot -7.17629 -1.34967
rtoes -7.59823
lfemur -8.76459 -17.3356 -19.8056
ltibia 43.0289
lfoot 3.7025 -24.1243
ltoes -9.23797
4066
root -9.21864 18.2741 -1.10447 1080.03 -22.0263 1.37438
lowerback 12.1944 6.53296 4.37653
upperback 2.33901 9.06617 -2.87858
thorax -3.1528 4.47243 -6.71031
lowerneck -16.744 12.9679 -5.10328
upperneck 46.4437 21.7438 3.80894
head 19.7949 8.05801 7.01784
rclavicle -5.80451e-014 9.93923e-016
rhumerus -33.1967 -8.92715 -77.6108
rradius 44.5105
rwrist 0.0535748
rhand -14.4733 7.99731
rfingers 7.12502
rthumb 11.6727 -21.6575
lclavicle -5.80451e-014 9.93923e-016
lhumerus -42.5008 17.3234 73.5573
lradius 32.1984
lwrist -8.36076
lhand -16.5379 26.2273
lfingers 7.12502
lthumb 9.68125 55.9848
rfemur -13.3648 -7.45017 16.0035
rtibia 32.4454
rfoot -7.06107 -1.02742
rtoes -7.39417
lfemur -7.91049 -17.4081 -19.8386
ltibia 42.4331
lfoot 6.45205 -24.8012
ltoes -2.91166
4067
root -9.14798 18.2672 -1.17796 1079.99 -22.3651 1.39943
lowerback 12.0628 6.51173 4.24794
upperback 2.37203 9.01772 -2.86513
thorax -3.07554 4.45293 -6.59947
lowerneck -16.5815 12.9555 -5.0125
upperneck 46.3164 21.6651 3.72807
head 19.7048 8.04868 6.92026
rclavicle -4.24902e-015 6.16232e-015
rhumerus -33.3851 -9.15327 -77.457
rradius 44.3783
rwrist 0.0867775
rhand -14.5382 7.6936
rfingers 7.12502
rthumb 11.6101 -21.9648
lclavicle -4.24902e-015 6.16232e-015
lhumerus -42.3311 17.4341 73.401
lradius 31.9366
lwrist -8.73901
lhand -16.4123 26.3652
lfingers 7.12502
lthumb 9.80237 56.1171
rfemur -13.7014 -7.37279 15.9014
rtibia 32.3553
rfoot -6.86105 -0.86159
rtoes -7.46414
lfemur -6.99911 -17.5442 -19.8665
ltibia 41.7262
lfoot 9.24763 -25.1763
ltoes 2.91913
4068
root -9.07502 18.2589 -1.25588 1079.91 -22.6443 1.50417
lowerback 12.0271 6.45646 3.99784
upperback 2.34844 8.91186 -2.85456
thorax -3.13603 4.39805 -6.43881
lowerneck -16.841 12.9817 -5.09993
upperneck 46.647 21.708 3.97917
head 19.9201 8.03416 7.12303
rclavicle -2.91965e-014 -2.98177e-015
rhumerus -33.7308 -9.25399 -77.3271
rradius 44.3311
rwrist 0.0418205
rhand -14.3734 7.67723
rfingers 7.12502
rthumb 11.769 -21.9721
lclavicle -2.91965e-014 -2.98177e-015
lhumerus -42.3356 17.5521 73.2347
lradius 31.8099
lwrist -9.10247
lhand -16.2853 26.5501
lfingers 7.12502
lthumb 9.92491 56.2961
rfemur -14.0658 -7.29253 15.7247
rtibia 32.2624
rfoot -6.69685 -0.784664
rtoes -7.22845
lfemur -6.08904 -17.7201 -19.9739
ltibia 40.9131
lfoot 11.393 -25.803
ltoes 6.78413
4069
root -8.99888 18.2498 -1.33316 1079.87 -22.9295 1.5353
lowerback 12.1102 6.40738 3.82681
upperback 2.23589 8.82895 -2.82111
thorax -3.34262 4.3464 -6.32416
lowerneck -16.5631 12.9798 -4.98552
upperneck 46.6679 21.6316 3.95414
head 19.8887 8.02773 7.05269
rclavicle 1.35596e-013 -4.59193e-014
rhumerus -34.2156 -9.31772 -77.1411
rradius 44.2705
rwrist -0.122663
rhand -14.1592 7.72546
rfingers 7.12502
rthumb 11.9756 -21.912
lclavicle 1.35596e-013 -4.59193e-014
lhumerus -42.4453 17.5164 73.1155
lradius 31.6247
lwrist -9.53867
lhand -16.6886 26.2508
lfingers 7.12502
lthumb 9.53578 56.015
rfemur -14.4255 -7.25313 15.6158
rtibia 32.1425
rfoot -6.54356 -0.678831
rtoes -7.1842
lfemur -5.2112 -17.792 -19.9884
ltibia 40.0189
lfoot 13.6825 -26.5174
ltoes 10.475
4070
root -8.92013 18.2401 -1.40665 1079.88 -23.2646 1.59275
lowerback 12.0611 6.38494 3.68331
upperback 2.15955 8.78012 -2.82597
thorax -3.42362 4.31829 -6.24597
lowerneck -16.4348 12.9711 -4.98469
upperneck 46.6851 21.5542 4.02676
head 19.8521 8.01262 7.05496
rclavicle -1.19147e-013 3.48867e-014
rhumerus -34.6823 -9.4765 -76.9339
rradius 44.2774
rwrist -0.129625
rhand -13.9404 7.97946
rfingers 7.12502
rthumb 12.1866 -21.6456
lclavicle -1.19147e-013 3.48867e-014
lhumerus -42.447 17.3721 73.0794
lradius 31.5842
lwrist -9.70369
lhand -17.1018 26.401
lfingers 7.12502
lthumb 9.13711 56.1831
rfemur -14.8254 -7.22724 15.4773
rtibia 31.9822
rfoot -6.4485 -0.586503
rtoes -7.93709
lfemur -4.37736 -17.8754 -20.0544
ltibia 39.0365
lfoot 16.2098 -26.8262
ltoes 13.9385
4071
root -8.84052 18.2368 -1.47848 1079.88 -23.5426 1.75291
lowerback 11.8433 6.34457 3.4988
upperback 2.20775 8.69571 -2.88784
thorax -3.28265 4.28456 -6.16625
lowerneck -16.46 12.9878 -4.9927
upperneck 46.6615 21.5205 4.11275
head 19.8213 8.01104 7.08456
rclavicle -7.87187e-014 4.77083e-015
rhumerus -34.9275 -9.70155 -76.803
rradius 44.3375
rwrist -0.0394003
rhand -13.9415 8.14674
rfingers 7.12502
rthumb 12.1855 -21.4783
lclavicle -7.87187e-014 4.77083e-015
lhumerus -42.2003 17.1867 73.126
lradius 31.6528
lwrist -9.61054
lhand -17.1069 26.8966
lfingers 7.12502
lthumb 9.13217 56.6789
rfemur -15.1967 -7.20627 15.2216
rtibia 31.8272
rfoot -6.46078 -0.509606
rtoes -8.37618
lfemur -3.59531 -18.1306 -20.2452
ltibia 37.9435
lfoot 18.5588 -27.0654
ltoes 16.5761
4072
root -8.76009 18.2293 -1.54994 1079.79 -23.8575 1.8538
lowerback 11.7605 6.29254 3.34038
upperback 2.20415 8.6042 -2.9106
thorax -3.27274 4.24039 -6.08277
lowerneck -16.1065 13.0604 -4.81555
upperneck 46.6128 21.5421 4.03113
head 19.7373 8.0554 6.97766
rclavicle -2.74074e-014 9.54166e-015
rhumerus -35.2703 -9.78228 -76.714
rradius 44.3703
rwrist -0.250078
rhand -13.796 8.07069
rfingers 7.12502
rthumb 12.3258 -21.546
lclavicle -2.74074e-014 9.54166e-015
lhumerus -42.1503 17.2079 73.0159
lradius 31.7234
lwrist -9.52393
lhand -17.007 26.8325
lfingers 7.12502
lthumb 9.22862 56.6105
rfemur -15.4694 -7.1155 14.9945
rtibia 31.7509
rfoot -6.45974 -0.374997
rtoes -8.08597
lfemur -2.62597 -18.3465 -20.4208
ltibia 36.7108
lfoot 21.252 -26.9297
ltoes 20.7823
4073
root -8.67633 18.2064 -1.62382 1079.69 -24.2272 1.87842
lowerback 11.7355 6.27227 3.21348
upperback 2.14947 8.56206 -2.8895
thorax -3.34387 4.21638 -5.98859
lowerneck -15.7244 13.1028 -4.68286
upperneck 46.5879 21.5049 4.01219
head 19.6438 8.08015 6.89313
rclavicle -7.07922e-014 1.66979e-014
rhumerus -35.6939 -9.99931 -76.4982
rradius 44.3043
rwrist -0.36388
rhand -13.412 8.24584
rfingers 7.12502
rthumb 12.6961 -21.3482
lclavicle -7.07922e-014 1.66979e-014
lhumerus -42.2678 17.293 72.8752
lradius 31.9306
lwrist -9.6151
lhand -16.8251 26.7253
lfingers 7.12502
lthumb 9.40413 56.4955
rfemur -15.8259 -6.96054 14.8305
rtibia 31.7724
rfoot -6.39973 -0.18612
rtoes -7.98031
lfemur -1.49587 -18.5423 -20.5716
ltibia 35.3399
lfoot 23.8313 -26.5686
ltoes 24.6311
